<?xml version="1.0" standalone="no"?>
<!DOCTYPE svg PUBLIC "-//W3C//DTD SVG 20010904//EN"
 "http://www.w3.org/TR/2001/REC-SVG-20010904/DTD/svg10.dtd">
<svg version="1.0" xmlns="http://www.w3.org/2000/svg"
 width="182.000000pt" height="182.000000pt" viewBox="0 0 182.000000 182.000000"
 preserveAspectRatio="xMidYMid meet">
<metadata>
Created by potrace 1.14, written by Peter Selinger 2001-2017
</metadata>
<g transform="translate(0.000000,182.000000) scale(0.100000,-0.100000)"
fill="#000000" stroke="none">
<path d="M905 1689 c-157 -7 -207 -17 -314 -66 -200 -90 -347 -253 -425 -471
-30 -84 -31 -92 -31 -252 1 -154 2 -170 28 -245 16 -44 46 -111 67 -149 22
-37 37 -72 34 -77 -3 -5 -2 -9 3 -7 4 1 46 -36 93 -83 95 -94 188 -152 315
-195 66 -23 102 -29 202 -32 143 -5 226 7 332 48 217 84 388 265 468 495 26
75 28 90 28 245 0 160 -1 168 -31 252 -40 112 -100 212 -174 292 -33 35 -57
65 -55 68 3 3 -1 5 -8 5 -7 0 -35 16 -63 36 -67 48 -163 92 -249 114 -38 10
-72 20 -75 23 -3 3 -68 2 -145 -1z m189 -109 c200 -51 371 -194 462 -385 121
-253 65 -581 -135 -784 -345 -354 -937 -248 -1142 205 -131 289 -41 640 216
840 163 127 397 176 599 124z"/>
<path d="M850 1171 c-78 -24 -142 -81 -178 -160 -33 -72 -28 -165 12 -234 94
-159 313 -193 437 -69 50 50 82 123 62 143 -7 7 -16 -1 -29 -28 -27 -55 -75
-83 -140 -83 -97 0 -150 37 -185 129 -25 69 -28 174 -5 219 27 52 79 68 112
35 14 -15 16 -30 10 -116 -5 -70 -4 -103 5 -113 18 -22 84 -17 139 11 163 82
56 276 -150 274 -36 0 -76 -4 -90 -8z"/>
</g>
</svg>
